# xmcd
#
# Track frame offsets: 
#        150
#        20506
#        33229
#        47364
#        59696
#        80576
#        97922
#        118041
#        139316
#        153812
#        169815
#
# Disc length: 2665 seconds
#
# Revision: 0
# Processed by: cddbd v1.5PL3 Copyright (c) Steve Scherf et al.
# Submitted via: ExactAudioCopy v0.95a4
#
DISCID=870a670b
DTITLE=John Trudell and Jesse Ed Davis - Heart Jump Bouquet
DYEAR=1987
DGENRE=Native American
TTITLE0=Restless Situations
TTITLE1=Listen Closely
TTITLE2=Such A Fine Day
TTITLE3=Never Never Blues
TTITLE4=Heart Chanting
TTITLE5=Rockin' The Rez
TTITLE6=Bringing Back The Time
TTITLE7=Heart Jump Bouquet
TTITLE8=Poetic Motion
TTITLE9=Sweet Things
TTITLE10=Tina Smiled
EXTD=
EXTT0=
EXTT1=
EXTT2=
EXTT3=
EXTT4=
EXTT5=
EXTT6=
EXTT7=
EXTT8=
EXTT9=
EXTT10=
PLAYORDER=
